<svg width="74" height="14" viewBox="0 0 74 14" fill="none" xmlns="http://www.w3.org/2000/svg">
<g id="Group">
<path id="Vector" d="M6.99996 0L4.77994 4.37495L0 5.16906L3.40783 8.66706L2.6738 13.5328L7 11.3197L11.3262 13.5328L10.5922 8.66706L14 5.16906L9.22006 4.37495L6.99996 0Z" fill="#FFD166"/>
<path id="Vector_2" d="M22 0L19.7799 4.37495L15 5.16906L18.4078 8.66706L17.6738 13.5328L22 11.3197L26.3262 13.5328L25.5922 8.66706L29 5.16906L24.2201 4.37495L22 0Z" fill="#FFD166"/>
<path id="Vector_3" d="M37 0L34.7799 4.37495L30 5.16906L33.4078 8.66706L32.6738 13.5328L37 11.3197L41.3262 13.5328L40.5922 8.66706L44 5.16906L39.2201 4.37495L37 0Z" fill="#FFD166"/>
<path id="Vector_4" d="M52 0L49.7799 4.37495L45 5.16906L48.4078 8.66706L47.6738 13.5328L52 11.3197L56.3262 13.5328L55.5922 8.66706L59 5.16906L54.2201 4.37495L52 0Z" fill="#FFD166"/>
<path id="Vector_5" d="M67 0L64.7799 4.37495L60 5.16906L63.4078 8.66706L62.6738 13.5328L67 11.3197L71.3262 13.5328L70.5922 8.66706L74 5.16906L69.2201 4.37495L67 0Z" fill="#DFDEDC"/>
</g>
</svg>
