<svg width="116" height="16" viewBox="0 0 116 16" fill="none" xmlns="http://www.w3.org/2000/svg">
<g id="Group 92">
<g id="Group 88">
<path id="Vector" d="M38.5064 1.27734C36.252 1.27734 34.4176 3.03298 34.4176 5.18994V10.778C34.4176 12.9347 36.2531 14.6896 38.5081 14.6896H44.3502C46.6049 14.6896 48.4396 12.9339 48.4396 10.777V5.18836C48.4396 3.03195 46.6041 1.27734 44.3491 1.27734H38.5064ZM45.6352 3.4233C45.9448 3.4233 46.1961 3.66364 46.1961 3.95979C46.1961 4.25593 45.9448 4.49627 45.6352 4.49627C45.3256 4.49627 45.0743 4.25593 45.0743 3.95979C45.0743 3.66364 45.3256 3.4233 45.6352 3.4233ZM41.4286 4.49627C43.4393 4.49627 45.0743 6.06014 45.0743 7.98345C45.0743 9.90676 43.4391 11.4706 41.4286 11.4706C39.4178 11.4706 37.7829 9.90649 37.7829 7.98345C37.7829 6.06041 39.4178 4.49627 41.4286 4.49627ZM41.4286 5.56925C40.0345 5.56925 38.9046 6.65001 38.9046 7.98345C38.9046 9.31689 40.0345 10.3976 41.4286 10.3976C42.8227 10.3976 43.9525 9.31689 43.9525 7.98345C43.9525 6.65001 42.8227 5.56925 41.4286 5.56925Z" fill="#444E62"/>
<path id="Vector_2" d="M7.96703 0C3.56739 0 0 3.5932 0 8.02466C0 12.0478 2.94259 15.37 6.77596 15.9502V10.1512H4.80473V8.04194H6.77596V6.63825C6.77596 4.31449 7.89993 3.29474 9.81753 3.29474C10.7356 3.29474 11.2219 3.36357 11.4514 3.39443V5.23547H10.1436C9.3297 5.23547 9.04534 6.01325 9.04534 6.88917V8.04194H11.4309L11.1076 10.1512H9.04534V15.9669C12.9339 15.4361 15.9341 12.0873 15.9341 8.02466C15.9341 3.5932 12.367 0 7.96703 0Z" fill="#444E62"/>
<path id="Vector_3" d="M83.4945 2.93871C82.8854 3.22278 82.2305 3.41216 81.5396 3.50166C82.2421 3.06272 82.7824 2.36262 83.036 1.53545C82.3788 1.9411 81.6507 2.23891 80.8759 2.39592C80.2573 1.70559 79.3748 1.27734 78.3972 1.27734C76.5191 1.27734 74.9971 2.8657 74.9971 4.82397C74.9971 5.10102 75.0279 5.37104 75.0859 5.63312C72.2607 5.48375 69.755 4.07011 68.0786 1.9246C67.7841 2.44876 67.6184 3.06272 67.6184 3.71059C67.6184 4.94188 68.2173 6.02563 69.1305 6.66433C68.5731 6.64631 68.0484 6.4832 67.5891 6.22142C67.5891 6.23211 67.5891 6.248 67.5891 6.26296C67.5891 7.98359 68.7614 9.41617 70.3153 9.74239C70.0312 9.82425 69.7312 9.86977 69.4219 9.86977C69.2022 9.86977 68.9883 9.8435 68.7811 9.8044C69.2138 11.2104 70.4691 12.2383 71.9563 12.2685C70.7927 13.2182 69.3273 13.7869 67.7336 13.7869C67.4582 13.7869 67.1892 13.7704 66.9231 13.7365C68.4283 14.7399 70.2161 15.3282 72.1351 15.3282C78.3882 15.3282 81.8089 9.92291 81.8089 5.23389C81.8089 5.08025 81.8042 4.92721 81.7972 4.77601C82.465 4.27996 83.0401 3.65378 83.4945 2.93871Z" fill="#444E62"/>
</g>
<path id="Vector_4" d="M116 1.27734H102.615V14.6896H116V1.27734ZM107.077 11.7091H105.201V6.4932H107.077V11.7091ZM106.106 5.53721C105.532 5.53721 105.15 5.15422 105.15 4.64306C105.15 4.13191 105.532 3.74892 106.169 3.74892C106.742 3.74892 107.125 4.13191 107.125 4.64306C107.125 5.15422 106.743 5.53721 106.106 5.53721ZM113.769 11.7091H111.953V8.85822C111.953 8.06988 111.469 7.88807 111.288 7.88807C111.106 7.88807 110.501 8.00953 110.501 8.85822C110.501 8.97968 110.501 11.7091 110.501 11.7091H108.625V6.4932H110.501V7.22119C110.743 6.79647 111.227 6.4932 112.135 6.4932C113.043 6.4932 113.769 7.22119 113.769 8.85822V11.7091Z" fill="#444E62"/>
</g>
</svg>
