<svg width="100" height="100" viewBox="0 0 100 100" fill="none" xmlns="http://www.w3.org/2000/svg">
<g id="Group 236">
<circle id="Ellipse 37" cx="50" cy="50" r="50" fill="white"/>
<g id="Group">
<path id="Vector" d="M67.1369 62.1954C69.686 58.6581 71.0385 54.4441 71.0385 50.0223C71.0904 44.3521 68.9578 39.0458 65.0039 35.0922C60.9982 31.0342 55.7441 28.8494 50.0738 28.8494C38.525 28.8494 29.0571 38.3173 29.0571 49.866C29.0571 61.4147 38.473 70.8826 50.0738 70.8826C52.1026 70.8826 54.0273 70.6225 55.8481 70.0502L55.9523 69.9983L55.5361 67.9177L55.38 67.9695C53.6114 68.4899 51.7905 68.802 49.97 68.802C39.5657 68.802 31.0862 60.3224 31.0862 49.9182C31.0862 39.514 39.5658 31.0344 49.97 31.0344C60.3742 31.0344 68.8538 39.514 68.8538 49.9182C68.8538 53.924 67.6051 57.7733 65.2123 61.1028L65.212 61.207L67.0329 62.2473L67.1369 62.1954Z" fill="#101828"/>
<path id="Vector_2" d="M67.8652 32.3873C63.1312 27.6011 56.7847 25 50.0739 25C47.7331 25 45.496 25.3121 43.3634 25.9362L43.2592 25.9881L43.6235 27.9128L43.7796 27.8609C45.8602 27.2886 47.9932 26.9766 50.0743 26.9766C62.8196 26.9766 73.2239 37.3288 73.2239 50.1261C73.2235 62.9243 62.8196 73.2236 50.0743 73.2236C37.3291 73.1717 26.9769 62.7673 26.9769 50.022C26.9769 45.1842 28.4335 40.6062 31.2428 36.6526L31.3469 36.5484L29.6302 35.5599L29.5783 35.6641C26.5607 39.8777 25 44.8719 25 50.074C25 63.8596 36.2366 75.0963 50.0223 75.0963C63.86 75.0963 75.1486 63.8596 75.1486 50.074C75.1486 43.4152 72.5997 37.1207 67.8658 32.3867L67.8652 32.3873Z" fill="#101828"/>
<path id="Vector_3" d="M46.0162 42.7395H45.2361C41.7506 42.7395 38.9413 45.5485 38.9413 49.0343C38.9413 52.4678 42.0105 54.7568 42.1146 54.8606C42.2706 54.9647 42.3748 55.1208 42.3748 55.2249V59.3867C42.3748 60.5831 43.311 61.5197 44.5077 61.6234C44.7679 61.8836 45.0281 62.0397 45.3402 62.1438H45.8605C46.1207 62.0397 46.3809 61.8836 46.5369 61.7276C47.7333 61.7276 48.6699 60.6872 48.6699 59.4908V55.329C48.6699 55.2249 48.8259 55.0689 49.0342 54.9647C49.1902 54.8606 52.2075 52.5716 52.2075 49.1384C52.3625 45.5489 49.4494 42.7395 46.0162 42.7395V42.7395ZM43.2069 53.2998C43.2069 53.2998 40.8137 51.4271 40.8137 48.9301C40.8137 46.4332 42.7906 44.5081 45.2357 44.5081H46.0159C48.5128 44.5081 50.4379 46.485 50.4379 48.9301C50.4379 51.3233 48.3049 53.0396 48.0447 53.1961C47.8887 53.3002 46.9521 53.9762 46.9521 54.9647L46.9525 56.3172H44.1953V55.0166C44.2472 54.0281 43.2068 53.2999 43.2068 53.2999L43.2069 53.2998ZM47.0566 58.2941V59.3867C47.0566 59.5427 46.9005 59.751 46.6922 59.751H44.6634C44.5074 59.751 44.2991 59.595 44.2991 59.3867V58.2941H47.0566Z" fill="#101828"/>
<path id="Vector_4" d="M45.6001 50.5428L46.6927 51.1151C46.7969 51.1151 46.8488 51.2192 46.9529 51.2192C47.0571 51.2192 47.2131 51.2192 47.265 51.1151C47.421 51.0109 47.5252 50.803 47.5252 50.5947L47.265 49.3461L48.2012 48.5137C48.3572 48.3576 48.3572 48.2016 48.3572 47.9414C48.2531 47.7854 48.097 47.6293 47.941 47.6293L46.6924 47.4737L46.1201 46.381C46.016 46.225 45.86 46.1208 45.5998 46.1208C45.3396 46.1208 45.1836 46.225 45.0794 46.381L44.5075 47.4737L43.2589 47.6297C43.1029 47.6297 42.8427 47.7857 42.8427 47.9418C42.7386 48.0978 42.8427 48.358 42.9987 48.514L43.9349 49.3465L43.6748 50.5951C43.6748 50.7511 43.7789 51.0113 43.9349 51.1154C44.091 51.2196 44.3512 51.2715 44.5072 51.2196L45.6001 50.5428Z" fill="#101828"/>
<path id="Vector_5" d="M57.6171 41.3867H54.8599C54.4956 41.3867 54.1316 41.751 54.1316 42.115L54.0275 44.924C54.0275 45.1319 54.0794 45.3402 54.2354 45.4962C54.3915 45.6523 54.5475 45.7041 54.7558 45.7041C54.9637 45.7041 55.1201 45.6 55.328 45.4962C55.4841 45.3402 55.536 45.1841 55.536 44.9759L55.5879 43.8314L55.8999 44.1435C57.5648 45.8083 57.5648 48.4094 55.8999 50.0739L54.3919 51.635C52.363 53.6638 52.1551 57.045 54.0276 59.2821C53.5072 60.2183 53.7155 61.4151 54.4438 62.1434C55.38 63.0796 56.9407 63.0796 57.9292 62.1434C58.9177 61.2072 58.8654 59.6465 57.9292 58.658C57.2009 57.9297 56.0564 57.7218 55.1202 58.1899C53.8197 56.525 53.9758 54.1322 55.4323 52.6757L56.8889 51.2191C59.1256 48.9824 59.0738 45.3928 56.8889 43.208L56.681 43.0001H57.6172C57.8251 43.0001 57.9815 42.8959 58.1375 42.7921C58.2936 42.6361 58.3455 42.4801 58.3455 42.2718C58.3455 42.0639 58.2413 41.9075 58.1375 41.7514C57.9811 41.4909 57.7732 41.3867 57.6172 41.3867L57.6171 41.3867ZM56.9407 61.0508C56.5763 61.4151 55.9522 61.4151 55.5882 61.0508C55.2239 60.6865 55.2239 60.0623 55.5882 59.6983C55.9525 59.334 56.5767 59.334 56.9407 59.6983C57.3569 60.1142 57.305 60.6865 56.9407 61.0508Z" fill="#101828"/>
<path id="Vector_6" d="M62.0908 53.2478C62.0908 53.0399 62.0389 52.8835 61.8828 52.7275C61.7787 52.6233 61.5708 52.5195 61.3625 52.5195C61.1546 52.5195 60.9982 52.5714 60.8421 52.7275L59.9578 53.6118L59.0735 52.7275C58.9693 52.6233 58.7614 52.5195 58.5531 52.5195C58.3452 52.5195 58.1888 52.5714 58.0328 52.7275C57.9286 52.8316 57.8248 53.0395 57.8248 53.2478C57.8248 53.4557 57.8767 53.6121 58.085 53.7682L58.9693 54.6006L58.085 55.433C57.9809 55.5372 57.8771 55.7451 57.8248 55.9534C57.8248 56.1613 57.8767 56.3177 58.0328 56.4738C58.1369 56.5779 58.3448 56.6817 58.5531 56.6817C58.761 56.6817 58.9174 56.6298 59.0735 56.4738L60.062 55.5894L60.9463 56.4738C61.0504 56.5779 61.2584 56.6817 61.4667 56.6817C61.6746 56.6817 61.831 56.6298 61.987 56.4738C62.2472 56.1617 62.2472 55.6936 61.987 55.4334L61.1027 54.601L61.987 53.7686C62.0386 53.6118 62.0908 53.508 62.0908 53.2479L62.0908 53.2478Z" fill="#101828"/>
<path id="Vector_7" d="M48.3052 40.9186C48.3052 41.1265 48.3571 41.2829 48.5131 41.4389C48.6172 41.5431 48.8252 41.6469 49.0335 41.6469C49.2414 41.6469 49.3978 41.595 49.5538 41.4389L50.5423 40.5546L51.4266 41.4389C51.5308 41.5431 51.7387 41.6469 51.947 41.6469C52.1549 41.6469 52.3113 41.595 52.4674 41.4389C52.5715 41.3348 52.6753 41.1269 52.6753 40.9186C52.6753 40.7107 52.6234 40.5543 52.4151 40.3982L51.5308 39.5658L52.4151 38.7334C52.7272 38.4732 52.7272 37.9532 52.4151 37.693C52.311 37.5889 52.103 37.4851 51.8948 37.4851C51.6868 37.4851 51.5304 37.537 51.3744 37.693L50.4382 38.6296L49.5539 37.7453C49.4497 37.6411 49.2418 37.5374 49.0335 37.5374C48.8256 37.5374 48.6692 37.5893 48.5131 37.7453C48.409 37.8494 48.3052 38.0574 48.3052 38.2657C48.3052 38.4736 48.3571 38.63 48.5654 38.786L49.4497 39.6184L48.5654 40.3982C48.3575 40.5543 48.3052 40.7626 48.3052 40.9186L48.3052 40.9186Z" fill="#101828"/>
</g>
</g>
</svg>
