<svg width="34" height="34" viewBox="0 0 34 34" fill="none" xmlns="http://www.w3.org/2000/svg">
<g id="Group 226">
<g id="Group 225">
<circle id="Ellipse 30" cx="17" cy="17" r="17" fill="#CEE5D9"/>
</g>
<g id="Group">
<path id="Vector" d="M21.0695 10.7835C20.662 10.7835 20.279 10.942 19.9904 11.2301C19.4841 11.7374 19.4114 12.5151 19.7693 13.1015L16.4147 16.5182C16.2423 16.6938 16.2448 16.9759 16.4205 17.1486C16.5202 17.2464 16.6538 17.2879 16.7824 17.2735C16.8808 17.2624 16.976 17.2189 17.0508 17.1427L20.4369 13.6939C20.6331 13.7836 20.8476 13.8322 21.0699 13.8322C21.4771 13.8322 21.8602 13.6738 22.1482 13.3859C22.7421 12.7916 22.7421 11.824 22.1478 11.2292C21.86 10.9418 21.4771 10.7834 21.0695 10.7834L21.0695 10.7835ZM21.6435 12.8818C21.4905 13.0348 21.2865 13.1191 21.0697 13.1191C20.8527 13.1191 20.649 13.0348 20.4959 12.8815C20.1796 12.5653 20.1794 12.0504 20.495 11.7341C20.6484 11.5811 20.8524 11.4965 21.0696 11.4965C21.2867 11.4965 21.4904 11.5809 21.6434 11.7335C21.9597 12.0505 21.9598 12.5655 21.6435 12.8818L21.6435 12.8818ZM24.5436 9.53038L24.5324 9.35674C24.521 9.17787 24.3787 9.03545 24.1999 9.02363L24.0268 9.01244C23.9959 9.01032 23.8275 9 23.5579 9C22.2781 9 19.0754 9.22576 16.986 11.316C16.7295 11.5725 16.4852 11.8376 16.2573 12.1072C15.9735 11.9699 15.6446 11.8963 15.3027 11.8963C14.6864 11.8963 14.1046 12.1247 13.7067 12.5231L11.5325 14.6972C11.2864 14.9423 11.361 15.2385 11.401 15.3978C11.4081 15.4266 11.4158 15.4558 11.4215 15.4855C11.4554 15.6661 11.5421 15.8304 11.6719 15.9602C11.75 16.0383 11.8424 16.1013 11.9495 16.1495L13.8858 16.9986L11.9759 18.9084C11.9129 18.9715 11.8756 19.056 11.8718 19.1453C11.8715 19.1551 11.8697 19.2284 11.8846 19.3448C11.0921 19.5463 9.99413 20.1322 9.82508 21.3858C9.80779 21.5141 9.86165 21.6413 9.96501 21.7188C10.0683 21.7964 10.2061 21.8115 10.3244 21.759C10.5574 21.6552 10.9012 21.5656 11.135 21.5755C10.9103 21.8334 10.4333 22.1784 9.51549 22.1376C9.36387 22.1321 9.22431 22.2208 9.16835 22.3618C9.11213 22.5029 9.15118 22.664 9.26611 22.7633C9.30156 22.7942 9.93729 23.3342 10.7791 23.3836C10.4081 23.8104 9.89127 24.2406 9.35655 24.2406C9.17233 24.2406 9.01848 24.3808 9.00157 24.5643C8.9844 24.7476 9.11003 24.9138 9.29101 24.9476C9.31812 24.9526 9.58269 25 9.97896 25C10.6093 25 11.5728 24.8802 12.4435 24.2802C13.2841 23.7012 13.8492 22.8035 14.133 21.615C14.2309 21.6291 14.3019 21.6316 14.3361 21.6316C14.3481 21.6316 14.3558 21.6312 14.3584 21.6311C14.4476 21.6273 14.532 21.5903 14.595 21.527L16.5382 19.5837L17.4389 21.637C17.4833 21.741 17.547 21.8349 17.6288 21.9175C17.7592 22.0479 17.9236 22.1346 18.1033 22.1673C18.1586 22.1779 18.2149 22.183 18.271 22.183C18.5128 22.183 18.7405 22.0889 18.9128 21.9174L21.1097 19.7202C21.7618 19.0683 21.8907 18.0738 21.4638 17.286C21.7316 17.0582 21.9916 16.8183 22.2394 16.57C24.8143 13.9965 24.5556 9.71024 24.5435 9.53033L24.5436 9.53038ZM20.7678 16.9372C20.7571 16.9458 20.7489 16.9558 20.7394 16.9652C19.8527 17.5846 17.7587 18.8992 16.2582 18.6637C15.8885 18.5951 15.5828 18.4438 15.3481 18.2092C15.1178 17.9785 14.9676 17.6796 14.8975 17.3192C14.8954 17.3019 14.8938 17.2864 14.891 17.2679C14.6129 15.3929 16.777 12.6166 16.9523 12.3953C17.1238 12.2003 17.3031 12.0079 17.4905 11.8207C19.3915 9.91874 22.3668 9.71336 23.5577 9.71336C23.6734 9.71336 23.7682 9.71548 23.8384 9.71784C23.8651 10.4672 23.8658 13.936 21.7349 16.0662C21.429 16.3726 21.1035 16.6658 20.7675 16.9372L20.7678 16.9372Z" fill="#098591"/>
</g>
</g>
</svg>
