<svg width="46" height="46" viewBox="0 0 46 46" fill="none" xmlns="http://www.w3.org/2000/svg">
<g id="Group 218">
<circle id="Ellipse 29" cx="23" cy="23" r="23" fill="#CEE5D9"/>
<g id="Group">
<path id="Vector" d="M14.0005 26.769C14.0005 27.2986 14.4315 27.7295 14.961 27.7295H20.7544H20.755H31.5724C32.1021 27.7295 32.533 27.2985 32.533 26.769V25.9084H14.0006L14.0005 26.769Z" fill="#006D77"/>
<path id="Vector_2" d="M31.572 15H14.9605C14.4309 15 14 15.4307 14 15.9603V25.3799H32.5324L32.5325 15.9603C32.5327 15.4307 32.1017 15 31.5719 15H31.572Z" fill="#006D77"/>
<path id="Vector_3" d="M29.7733 30.4717H26.0938L25.5763 28.2583H20.9571L20.4392 30.4717H19.8964L16.7599 30.4715C16.6139 30.4715 16.4956 30.5898 16.4956 30.7358C16.4956 30.8817 16.6139 31 16.7599 31H20.1055H20.1061H20.1066H26.4263H26.4268H26.4274H29.773C29.919 31 30.0372 30.8817 30.0372 30.7358C30.0374 30.5898 29.9193 30.4717 29.7733 30.4717H29.7733Z" fill="#006D77"/>
</g>
</g>
</svg>
